<svg xmlns="http://www.w3.org/2000/svg" xmlns:xlink="http://www.w3.org/1999/xlink" width="400" zoomAndPan="magnify" viewBox="0 0 300 74.999997" height="100" preserveAspectRatio="xMidYMid meet" version="1.0"><defs><g/><clipPath id="d636814553"><path d="M 171.277344 58.863281 L 175.828125 58.863281 L 175.828125 71.738281 L 171.277344 71.738281 Z M 171.277344 58.863281 " clip-rule="nonzero"/></clipPath></defs><g clip-path="url(#d636814553)"><path fill="#000000" d="M 171.277344 58.863281 L 175.828125 58.863281 L 175.828125 71.734375 L 171.277344 71.734375 Z M 171.277344 58.863281 " fill-opacity="1" fill-rule="nonzero"/></g><g fill="#000000" fill-opacity="1"><g transform="translate(9.211536, 48.775498)"><g><path d="M 17.296875 -23.671875 C 20.191406 -23.671875 22.523438 -22.800781 24.296875 -21.0625 C 26.078125 -19.332031 26.96875 -16.765625 26.96875 -13.359375 L 26.96875 0 L 20.203125 0 L 20.203125 -12.3125 C 20.203125 -14.164062 19.796875 -15.546875 18.984375 -16.453125 C 18.179688 -17.367188 17.015625 -17.828125 15.484375 -17.828125 C 13.773438 -17.828125 12.414062 -17.296875 11.40625 -16.234375 C 10.394531 -15.179688 9.890625 -13.613281 9.890625 -11.53125 L 9.890625 0 L 3.125 0 L 3.125 -32.171875 L 9.890625 -32.171875 L 9.890625 -20.90625 C 10.785156 -21.800781 11.867188 -22.484375 13.140625 -22.953125 C 14.410156 -23.429688 15.796875 -23.671875 17.296875 -23.671875 Z M 17.296875 -23.671875 "/></g></g></g><g fill="#000000" fill-opacity="1"><g transform="translate(39.166343, 48.775498)"><g><path d="M 3.125 -23.328125 L 9.890625 -23.328125 L 9.890625 0 L 3.125 0 Z M 6.515625 -26.578125 C 5.265625 -26.578125 4.25 -26.9375 3.46875 -27.65625 C 2.6875 -28.382812 2.296875 -29.28125 2.296875 -30.34375 C 2.296875 -31.414062 2.6875 -32.3125 3.46875 -33.03125 C 4.25 -33.757812 5.265625 -34.125 6.515625 -34.125 C 7.753906 -34.125 8.765625 -33.773438 9.546875 -33.078125 C 10.328125 -32.390625 10.71875 -31.523438 10.71875 -30.484375 C 10.71875 -29.359375 10.328125 -28.425781 9.546875 -27.6875 C 8.765625 -26.945312 7.753906 -26.578125 6.515625 -26.578125 Z M 6.515625 -26.578125 "/></g></g></g><g fill="#000000" fill-opacity="1"><g transform="translate(52.214669, 48.775498)"><g><path d="M 27.1875 -23.328125 L 27.1875 -3.90625 C 27.1875 0.375 26.070312 3.554688 23.84375 5.640625 C 21.625 7.722656 18.375 8.765625 14.09375 8.765625 C 11.832031 8.765625 9.691406 8.488281 7.671875 7.9375 C 5.648438 7.382812 3.972656 6.585938 2.640625 5.546875 L 5.328125 0.6875 C 6.316406 1.5 7.5625 2.144531 9.0625 2.625 C 10.5625 3.101562 12.066406 3.34375 13.578125 3.34375 C 15.910156 3.34375 17.632812 2.8125 18.75 1.75 C 19.863281 0.695312 20.421875 -0.894531 20.421875 -3.03125 L 20.421875 -4.03125 C 18.660156 -2.09375 16.203125 -1.125 13.046875 -1.125 C 10.910156 -1.125 8.953125 -1.59375 7.171875 -2.53125 C 5.398438 -3.476562 3.992188 -4.800781 2.953125 -6.5 C 1.910156 -8.207031 1.390625 -10.175781 1.390625 -12.40625 C 1.390625 -14.625 1.910156 -16.585938 2.953125 -18.296875 C 3.992188 -20.003906 5.398438 -21.328125 7.171875 -22.265625 C 8.953125 -23.203125 10.910156 -23.671875 13.046875 -23.671875 C 16.429688 -23.671875 19.003906 -22.554688 20.765625 -20.328125 L 20.765625 -23.328125 Z M 14.390625 -6.671875 C 16.179688 -6.671875 17.648438 -7.195312 18.796875 -8.25 C 19.941406 -9.3125 20.515625 -10.695312 20.515625 -12.40625 C 20.515625 -14.101562 19.941406 -15.476562 18.796875 -16.53125 C 17.648438 -17.59375 16.179688 -18.125 14.390625 -18.125 C 12.597656 -18.125 11.125 -17.59375 9.96875 -16.53125 C 8.8125 -15.476562 8.234375 -14.101562 8.234375 -12.40625 C 8.234375 -10.695312 8.8125 -9.3125 9.96875 -8.25 C 11.125 -7.195312 12.597656 -6.671875 14.390625 -6.671875 Z M 14.390625 -6.671875 "/></g></g></g><g fill="#000000" fill-opacity="1"><g transform="translate(82.559621, 48.775498)"><g><path d="M 17.296875 -23.671875 C 20.191406 -23.671875 22.523438 -22.800781 24.296875 -21.0625 C 26.078125 -19.332031 26.96875 -16.765625 26.96875 -13.359375 L 26.96875 0 L 20.203125 0 L 20.203125 -12.3125 C 20.203125 -14.164062 19.796875 -15.546875 18.984375 -16.453125 C 18.179688 -17.367188 17.015625 -17.828125 15.484375 -17.828125 C 13.773438 -17.828125 12.414062 -17.296875 11.40625 -16.234375 C 10.394531 -15.179688 9.890625 -13.613281 9.890625 -11.53125 L 9.890625 0 L 3.125 0 L 3.125 -32.171875 L 9.890625 -32.171875 L 9.890625 -20.90625 C 10.785156 -21.800781 11.867188 -22.484375 13.140625 -22.953125 C 14.410156 -23.429688 15.796875 -23.671875 17.296875 -23.671875 Z M 17.296875 -23.671875 "/></g></g></g><g fill="#000000" fill-opacity="1"><g transform="translate(112.514427, 48.775498)"><g><path d="M 26.875 -32.171875 L 26.875 0 L 20.421875 0 L 20.421875 -2.6875 C 18.742188 -0.664062 16.316406 0.34375 13.140625 0.34375 C 10.941406 0.34375 8.953125 -0.144531 7.171875 -1.125 C 5.398438 -2.101562 4.003906 -3.503906 2.984375 -5.328125 C 1.972656 -7.148438 1.46875 -9.257812 1.46875 -11.65625 C 1.46875 -14.0625 1.972656 -16.171875 2.984375 -17.984375 C 4.003906 -19.804688 5.398438 -21.207031 7.171875 -22.1875 C 8.953125 -23.175781 10.941406 -23.671875 13.140625 -23.671875 C 16.117188 -23.671875 18.445312 -22.734375 20.125 -20.859375 L 20.125 -32.171875 Z M 14.3125 -5.203125 C 16.007812 -5.203125 17.421875 -5.785156 18.546875 -6.953125 C 19.679688 -8.128906 20.25 -9.695312 20.25 -11.65625 C 20.25 -13.625 19.679688 -15.191406 18.546875 -16.359375 C 17.421875 -17.535156 16.007812 -18.125 14.3125 -18.125 C 12.570312 -18.125 11.140625 -17.535156 10.015625 -16.359375 C 8.890625 -15.191406 8.328125 -13.625 8.328125 -11.65625 C 8.328125 -9.695312 8.890625 -8.128906 10.015625 -6.953125 C 11.140625 -5.785156 12.570312 -5.203125 14.3125 -5.203125 Z M 14.3125 -5.203125 "/></g></g></g><g fill="#000000" fill-opacity="1"><g transform="translate(142.512577, 48.775498)"><g><path d="M 12.53125 -23.671875 C 16.144531 -23.671875 18.921875 -22.8125 20.859375 -21.09375 C 22.796875 -19.375 23.765625 -16.78125 23.765625 -13.3125 L 23.765625 0 L 17.4375 0 L 17.4375 -2.90625 C 16.15625 -0.738281 13.78125 0.34375 10.3125 0.34375 C 8.519531 0.34375 6.96875 0.0390625 5.65625 -0.5625 C 4.34375 -1.164062 3.335938 -2.003906 2.640625 -3.078125 C 1.953125 -4.148438 1.609375 -5.363281 1.609375 -6.71875 C 1.609375 -8.882812 2.421875 -10.585938 4.046875 -11.828125 C 5.679688 -13.078125 8.207031 -13.703125 11.625 -13.703125 L 17 -13.703125 C 17 -15.171875 16.550781 -16.300781 15.65625 -17.09375 C 14.757812 -17.894531 13.414062 -18.296875 11.625 -18.296875 C 10.375 -18.296875 9.148438 -18.097656 7.953125 -17.703125 C 6.753906 -17.316406 5.738281 -16.789062 4.90625 -16.125 L 2.46875 -20.859375 C 3.738281 -21.753906 5.265625 -22.445312 7.046875 -22.9375 C 8.828125 -23.425781 10.65625 -23.671875 12.53125 -23.671875 Z M 12.015625 -4.203125 C 13.171875 -4.203125 14.195312 -4.46875 15.09375 -5 C 15.988281 -5.539062 16.625 -6.332031 17 -7.375 L 17 -9.75 L 12.359375 -9.75 C 9.578125 -9.75 8.1875 -8.84375 8.1875 -7.03125 C 8.1875 -6.15625 8.523438 -5.460938 9.203125 -4.953125 C 9.890625 -4.453125 10.828125 -4.203125 12.015625 -4.203125 Z M 12.015625 -4.203125 "/></g></g></g><g fill="#000000" fill-opacity="1"><g transform="translate(169.259472, 48.775498)"><g><path d="M 18.171875 -1.125 C 17.503906 -0.632812 16.6875 -0.265625 15.71875 -0.015625 C 14.75 0.222656 13.726562 0.34375 12.65625 0.34375 C 9.882812 0.34375 7.738281 -0.363281 6.21875 -1.78125 C 4.707031 -3.195312 3.953125 -5.273438 3.953125 -8.015625 L 3.953125 -17.609375 L 0.34375 -17.609375 L 0.34375 -22.8125 L 3.953125 -22.8125 L 3.953125 -28.484375 L 10.703125 -28.484375 L 10.703125 -22.8125 L 16.515625 -22.8125 L 16.515625 -17.609375 L 10.703125 -17.609375 L 10.703125 -8.109375 C 10.703125 -7.128906 10.957031 -6.367188 11.46875 -5.828125 C 11.976562 -5.296875 12.691406 -5.03125 13.609375 -5.03125 C 14.679688 -5.03125 15.59375 -5.316406 16.34375 -5.890625 Z M 18.171875 -1.125 "/></g></g></g><g fill="#000000" fill-opacity="1"><g transform="translate(188.116696, 48.775498)"><g><path d="M 12.53125 -23.671875 C 16.144531 -23.671875 18.921875 -22.8125 20.859375 -21.09375 C 22.796875 -19.375 23.765625 -16.78125 23.765625 -13.3125 L 23.765625 0 L 17.4375 0 L 17.4375 -2.90625 C 16.15625 -0.738281 13.78125 0.34375 10.3125 0.34375 C 8.519531 0.34375 6.96875 0.0390625 5.65625 -0.5625 C 4.34375 -1.164062 3.335938 -2.003906 2.640625 -3.078125 C 1.953125 -4.148438 1.609375 -5.363281 1.609375 -6.71875 C 1.609375 -8.882812 2.421875 -10.585938 4.046875 -11.828125 C 5.679688 -13.078125 8.207031 -13.703125 11.625 -13.703125 L 17 -13.703125 C 17 -15.171875 16.550781 -16.300781 15.65625 -17.09375 C 14.757812 -17.894531 13.414062 -18.296875 11.625 -18.296875 C 10.375 -18.296875 9.148438 -18.097656 7.953125 -17.703125 C 6.753906 -17.316406 5.738281 -16.789062 4.90625 -16.125 L 2.46875 -20.859375 C 3.738281 -21.753906 5.265625 -22.445312 7.046875 -22.9375 C 8.828125 -23.425781 10.65625 -23.671875 12.53125 -23.671875 Z M 12.015625 -4.203125 C 13.171875 -4.203125 14.195312 -4.46875 15.09375 -5 C 15.988281 -5.539062 16.625 -6.332031 17 -7.375 L 17 -9.75 L 12.359375 -9.75 C 9.578125 -9.75 8.1875 -8.84375 8.1875 -7.03125 C 8.1875 -6.15625 8.523438 -5.460938 9.203125 -4.953125 C 9.890625 -4.453125 10.828125 -4.203125 12.015625 -4.203125 Z M 12.015625 -4.203125 "/></g></g></g><g fill="#000000" fill-opacity="1"><g transform="translate(214.8636, 48.775498)"><g><path d="M 17.296875 -23.671875 C 20.191406 -23.671875 22.523438 -22.800781 24.296875 -21.0625 C 26.078125 -19.332031 26.96875 -16.765625 26.96875 -13.359375 L 26.96875 0 L 20.203125 0 L 20.203125 -12.3125 C 20.203125 -14.164062 19.796875 -15.546875 18.984375 -16.453125 C 18.179688 -17.367188 17.015625 -17.828125 15.484375 -17.828125 C 13.773438 -17.828125 12.414062 -17.296875 11.40625 -16.234375 C 10.394531 -15.179688 9.890625 -13.613281 9.890625 -11.53125 L 9.890625 0 L 3.125 0 L 3.125 -23.328125 L 9.578125 -23.328125 L 9.578125 -20.59375 C 10.472656 -21.570312 11.585938 -22.328125 12.921875 -22.859375 C 14.253906 -23.398438 15.710938 -23.671875 17.296875 -23.671875 Z M 17.296875 -23.671875 "/></g></g></g><g fill="#000000" fill-opacity="1"><g transform="translate(244.818406, 48.775498)"><g><path d="M 25.96875 -11.578125 C 25.96875 -11.492188 25.925781 -10.882812 25.84375 -9.75 L 8.1875 -9.75 C 8.507812 -8.3125 9.265625 -7.171875 10.453125 -6.328125 C 11.640625 -5.492188 13.113281 -5.078125 14.875 -5.078125 C 16.082031 -5.078125 17.15625 -5.253906 18.09375 -5.609375 C 19.039062 -5.972656 19.914062 -6.546875 20.71875 -7.328125 L 24.328125 -3.421875 C 22.128906 -0.910156 18.921875 0.34375 14.703125 0.34375 C 12.066406 0.34375 9.738281 -0.164062 7.71875 -1.1875 C 5.695312 -2.21875 4.132812 -3.640625 3.03125 -5.453125 C 1.9375 -7.273438 1.390625 -9.34375 1.390625 -11.65625 C 1.390625 -13.945312 1.929688 -16.007812 3.015625 -17.84375 C 4.097656 -19.675781 5.582031 -21.101562 7.46875 -22.125 C 9.363281 -23.15625 11.484375 -23.671875 13.828125 -23.671875 C 16.109375 -23.671875 18.175781 -23.175781 20.03125 -22.1875 C 21.882812 -21.207031 23.335938 -19.800781 24.390625 -17.96875 C 25.441406 -16.132812 25.96875 -14.003906 25.96875 -11.578125 Z M 13.875 -18.5625 C 12.34375 -18.5625 11.054688 -18.125 10.015625 -17.25 C 8.972656 -16.382812 8.335938 -15.203125 8.109375 -13.703125 L 19.59375 -13.703125 C 19.363281 -15.171875 18.726562 -16.347656 17.6875 -17.234375 C 16.644531 -18.117188 15.375 -18.5625 13.875 -18.5625 Z M 13.875 -18.5625 "/></g></g></g><g fill="#000000" fill-opacity="1"><g transform="translate(272.172209, 48.775498)"><g><path d="M 18.171875 -1.125 C 17.503906 -0.632812 16.6875 -0.265625 15.71875 -0.015625 C 14.75 0.222656 13.726562 0.34375 12.65625 0.34375 C 9.882812 0.34375 7.738281 -0.363281 6.21875 -1.78125 C 4.707031 -3.195312 3.953125 -5.273438 3.953125 -8.015625 L 3.953125 -17.609375 L 0.34375 -17.609375 L 0.34375 -22.8125 L 3.953125 -22.8125 L 3.953125 -28.484375 L 10.703125 -28.484375 L 10.703125 -22.8125 L 16.515625 -22.8125 L 16.515625 -17.609375 L 10.703125 -17.609375 L 10.703125 -8.109375 C 10.703125 -7.128906 10.957031 -6.367188 11.46875 -5.828125 C 11.976562 -5.296875 12.691406 -5.03125 13.609375 -5.03125 C 14.679688 -5.03125 15.59375 -5.316406 16.34375 -5.890625 Z M 18.171875 -1.125 "/></g></g></g><g fill="#000000" fill-opacity="1"><g transform="translate(93.766105, 70.721972)"><g><path d="M 9.25 -3.125 L 2.734375 -3.125 L 1.328125 0 L 0.03125 0 L 5.390625 -11.71875 L 6.609375 -11.71875 L 11.96875 0 L 10.65625 0 Z M 8.796875 -4.140625 L 5.984375 -10.421875 L 3.171875 -4.140625 Z M 8.796875 -4.140625 "/></g></g></g><g fill="#000000" fill-opacity="1"><g transform="translate(105.762945, 70.721972)"><g><path d="M 10.15625 -5.859375 L 11.34375 -5.859375 L 11.34375 -1.390625 C 10.800781 -0.910156 10.15625 -0.539062 9.40625 -0.28125 C 8.65625 -0.03125 7.867188 0.09375 7.046875 0.09375 C 5.867188 0.09375 4.8125 -0.160156 3.875 -0.671875 C 2.945312 -1.179688 2.210938 -1.890625 1.671875 -2.796875 C 1.140625 -3.710938 0.875 -4.734375 0.875 -5.859375 C 0.875 -6.984375 1.140625 -8 1.671875 -8.90625 C 2.210938 -9.820312 2.945312 -10.535156 3.875 -11.046875 C 4.8125 -11.554688 5.875 -11.8125 7.0625 -11.8125 C 7.957031 -11.8125 8.773438 -11.671875 9.515625 -11.390625 C 10.265625 -11.109375 10.894531 -10.6875 11.40625 -10.125 L 10.640625 -9.34375 C 9.710938 -10.25 8.535156 -10.703125 7.109375 -10.703125 C 6.160156 -10.703125 5.300781 -10.492188 4.53125 -10.078125 C 3.769531 -9.660156 3.171875 -9.082031 2.734375 -8.34375 C 2.304688 -7.601562 2.09375 -6.773438 2.09375 -5.859375 C 2.09375 -4.941406 2.304688 -4.113281 2.734375 -3.375 C 3.171875 -2.644531 3.769531 -2.066406 4.53125 -1.640625 C 5.289062 -1.210938 6.144531 -1 7.09375 -1 C 8.300781 -1 9.320312 -1.300781 10.15625 -1.90625 Z M 10.15625 -5.859375 "/></g></g></g><g fill="#000000" fill-opacity="1"><g transform="translate(118.696771, 70.721972)"><g><path d="M 10.1875 -1.078125 L 10.1875 0 L 1.90625 0 L 1.90625 -11.71875 L 9.9375 -11.71875 L 9.9375 -10.640625 L 3.140625 -10.640625 L 3.140625 -6.46875 L 9.203125 -6.46875 L 9.203125 -5.421875 L 3.140625 -5.421875 L 3.140625 -1.078125 Z M 10.1875 -1.078125 "/></g></g></g><g fill="#000000" fill-opacity="1"><g transform="translate(129.890469, 70.721972)"><g><path d="M 11.703125 -11.71875 L 11.703125 0 L 10.671875 0 L 3.140625 -9.5 L 3.140625 0 L 1.90625 0 L 1.90625 -11.71875 L 2.921875 -11.71875 L 10.46875 -2.203125 L 10.46875 -11.71875 Z M 11.703125 -11.71875 "/></g></g></g><g fill="#000000" fill-opacity="1"><g transform="translate(143.493575, 70.721972)"><g><path d="M 7 0.09375 C 5.832031 0.09375 4.78125 -0.160156 3.84375 -0.671875 C 2.914062 -1.179688 2.1875 -1.890625 1.65625 -2.796875 C 1.132812 -3.710938 0.875 -4.734375 0.875 -5.859375 C 0.875 -6.984375 1.132812 -8 1.65625 -8.90625 C 2.1875 -9.820312 2.921875 -10.535156 3.859375 -11.046875 C 4.796875 -11.554688 5.847656 -11.8125 7.015625 -11.8125 C 7.878906 -11.8125 8.679688 -11.664062 9.421875 -11.375 C 10.160156 -11.082031 10.785156 -10.660156 11.296875 -10.109375 L 10.515625 -9.328125 C 9.597656 -10.242188 8.441406 -10.703125 7.046875 -10.703125 C 6.117188 -10.703125 5.273438 -10.488281 4.515625 -10.0625 C 3.753906 -9.644531 3.160156 -9.066406 2.734375 -8.328125 C 2.304688 -7.597656 2.09375 -6.773438 2.09375 -5.859375 C 2.09375 -4.941406 2.304688 -4.113281 2.734375 -3.375 C 3.160156 -2.644531 3.753906 -2.066406 4.515625 -1.640625 C 5.273438 -1.210938 6.117188 -1 7.046875 -1 C 8.453125 -1 9.609375 -1.46875 10.515625 -2.40625 L 11.296875 -1.625 C 10.785156 -1.0625 10.15625 -0.632812 9.40625 -0.34375 C 8.664062 -0.0507812 7.863281 0.09375 7 0.09375 Z M 7 0.09375 "/></g></g></g><g fill="#000000" fill-opacity="1"><g transform="translate(155.523878, 70.721972)"><g><path d="M 5.921875 -4.046875 L 5.921875 0 L 4.703125 0 L 4.703125 -4.046875 L 0.015625 -11.71875 L 1.34375 -11.71875 L 5.359375 -5.140625 L 9.375 -11.71875 L 10.609375 -11.71875 Z M 5.921875 -4.046875 "/></g></g></g></svg>